<svg width="73" height="76" viewBox="0 0 73 76" fill="none" xmlns="http://www.w3.org/2000/svg">
<path d="M43.1005 43.4152L47.3589 35.7518C47.6326 35.2768 47.5109 34.6752 47.1155 34.3268L42.6139 30.6535C42.7051 29.9568 42.7659 29.2285 42.7659 28.5002C42.7659 27.7718 42.7051 27.0435 42.6139 26.3152L47.1155 22.6418C47.5109 22.2935 47.6326 21.6918 47.3589 21.2168L43.1005 13.5535C42.8268 13.0785 42.2793 12.8885 41.7926 13.0785L36.5001 15.2952C35.4051 14.4085 34.2189 13.6802 32.9109 13.1102L32.1201 7.25183C32.0289 6.74516 31.5726 6.3335 31.0555 6.3335H22.5389C22.0218 6.3335 21.5655 6.74516 21.4743 7.2835L20.6834 13.1418C19.4059 13.7118 18.1893 14.4402 17.0943 15.3268L11.8018 13.1102C11.3151 12.9202 10.7676 13.1102 10.4939 13.5852L6.23553 21.2485C5.96178 21.7235 6.08345 22.3252 6.47886 22.6735L10.9805 26.3468C10.8893 27.0435 10.8284 27.7718 10.8284 28.5002C10.8284 29.2285 10.8893 29.9568 10.9805 30.6852L6.47886 34.3585C6.08345 34.7068 5.96178 35.3085 6.23553 35.7835L10.4939 43.4468C10.7676 43.9218 11.3151 44.1118 11.8018 43.9218L17.0943 41.7052C18.1893 42.5918 19.3755 43.3202 20.6834 43.8902L21.4743 49.7485C21.5655 50.2552 22.0218 50.6668 22.5389 50.6668H31.0555C31.5726 50.6668 32.0289 50.2552 32.1201 49.7168L32.9109 43.8585C34.1884 43.2885 35.4051 42.5602 36.5001 41.6735L41.7926 43.8902C42.2793 44.0802 42.8268 43.8902 43.1005 43.4152ZM26.7972 34.8335C23.4514 34.8335 20.7139 31.9835 20.7139 28.5002C20.7139 25.0168 23.4514 22.1668 26.7972 22.1668C30.143 22.1668 32.8805 25.0168 32.8805 28.5002C32.8805 31.9835 30.143 34.8335 26.7972 34.8335Z" fill="#3A3A3A"/>
<path d="M66.6734 59.122L63.7534 56.7787C63.8143 56.3353 63.8751 55.8603 63.8751 55.3853C63.8751 54.9103 63.8447 54.4353 63.7534 53.992L66.643 51.6487C66.8863 51.427 66.9776 51.047 66.7951 50.7303L64.0576 45.822C63.9055 45.5053 63.5405 45.4103 63.2059 45.5053L59.8297 46.9303C59.1301 46.3603 58.3697 45.8853 57.518 45.537L57.0009 41.8003C56.9705 41.4203 56.6663 41.167 56.3622 41.167H50.9176C50.583 41.167 50.2788 41.4203 50.2484 41.7687L49.7313 45.5053C48.9101 45.8853 48.1193 46.3287 47.4197 46.8987L44.0434 45.4737C43.7393 45.347 43.3743 45.4737 43.1918 45.7903L40.4543 50.6987C40.3022 51.0153 40.3326 51.3953 40.6063 51.617L43.4959 53.9603C43.4351 54.4037 43.4047 54.8787 43.4047 55.3537C43.4047 55.8287 43.4351 56.3037 43.4959 56.747L40.6063 59.0903C40.363 59.312 40.2718 59.692 40.4543 60.0087L43.1918 64.917C43.3438 65.2337 43.7088 65.3287 44.0434 65.2337L47.4197 63.8087C48.1193 64.3787 48.8797 64.8537 49.7313 65.202L50.2484 68.9387C50.3093 69.287 50.583 69.5403 50.9176 69.5403H56.3622C56.6968 69.5403 57.0009 69.287 57.0313 68.9387L57.5484 65.202C58.3697 64.822 59.1605 64.3787 59.8297 63.8087L63.2363 65.2337C63.5405 65.3603 63.9055 65.2337 64.088 64.917L66.8255 60.0087C67.008 59.7237 66.9168 59.3437 66.6734 59.122ZM53.6247 59.6287C51.3738 59.6287 49.5184 57.7287 49.5184 55.3537C49.5184 52.9787 51.3434 51.0787 53.6247 51.0787C55.9059 51.0787 57.7309 52.9787 57.7309 55.3537C57.7309 57.7287 55.8755 59.6287 53.6247 59.6287Z" fill="#3A3A3A"/>
</svg>
