<svg width="31" height="31" viewBox="0 0 31 31" fill="none" xmlns="http://www.w3.org/2000/svg">
<path d="M29.1838 21.2742C27.0825 21.2742 25.0496 20.9325 23.1533 20.3175C22.5554 20.1125 21.8892 20.2663 21.4279 20.7275L18.7458 24.0929C13.9112 21.7867 9.38417 17.4304 6.97542 12.425L10.3067 9.58917C10.7679 9.11083 10.9046 8.44458 10.7167 7.84667C10.0846 5.95042 9.76 3.9175 9.76 1.81625C9.76 0.89375 8.99125 0.125 8.06875 0.125H2.15792C1.23542 0.125 0.125 0.535 0.125 1.81625C0.125 17.6867 13.3304 30.875 29.1838 30.875C30.3967 30.875 30.875 29.7988 30.875 28.8592V22.9654C30.875 22.0429 30.1063 21.2742 29.1838 21.2742Z" fill="white"/>
</svg>
