<svg width="42" height="45" viewBox="0 0 42 45" fill="none" xmlns="http://www.w3.org/2000/svg">
<path d="M37.1005 37.4152L41.3589 29.7518C41.6326 29.2768 41.5109 28.6752 41.1155 28.3268L36.6139 24.6535C36.7051 23.9568 36.7659 23.2285 36.7659 22.5002C36.7659 21.7718 36.7051 21.0435 36.6139 20.3152L41.1155 16.6418C41.5109 16.2935 41.6326 15.6918 41.3589 15.2168L37.1005 7.5535C36.8268 7.0785 36.2793 6.8885 35.7926 7.0785L30.5001 9.29516C29.4051 8.4085 28.2189 7.68016 26.9109 7.11016L26.1201 1.25183C26.0289 0.745163 25.5726 0.333496 25.0555 0.333496H16.5389C16.0218 0.333496 15.5655 0.745163 15.4743 1.2835L14.6834 7.14183C13.4059 7.71183 12.1893 8.44016 11.0943 9.32683L5.80178 7.11016C5.31511 6.92016 4.76761 7.11016 4.49386 7.58516L0.235529 15.2485C-0.0382215 15.7235 0.0834457 16.3252 0.478862 16.6735L4.98053 20.3468C4.88928 21.0435 4.82844 21.7718 4.82844 22.5002C4.82844 23.2285 4.88928 23.9568 4.98053 24.6852L0.478862 28.3585C0.0834457 28.7068 -0.0382215 29.3085 0.235529 29.7835L4.49386 37.4468C4.76761 37.9218 5.31511 38.1118 5.80178 37.9218L11.0943 35.7052C12.1893 36.5918 13.3755 37.3202 14.6834 37.8902L15.4743 43.7485C15.5655 44.2552 16.0218 44.6668 16.5389 44.6668H25.0555C25.5726 44.6668 26.0289 44.2552 26.1201 43.7168L26.9109 37.8585C28.1884 37.2885 29.4051 36.5602 30.5001 35.6735L35.7926 37.8902C36.2793 38.0802 36.8268 37.8902 37.1005 37.4152ZM20.7972 28.8335C17.4514 28.8335 14.7139 25.9835 14.7139 22.5002C14.7139 19.0168 17.4514 16.1668 20.7972 16.1668C24.143 16.1668 26.8805 19.0168 26.8805 22.5002C26.8805 25.9835 24.143 28.8335 20.7972 28.8335Z" fill="#F1F1F1"/>
</svg>
