<svg width="73" height="71" viewBox="0 0 73 71" fill="none" xmlns="http://www.w3.org/2000/svg">
<path d="M43.1005 40.5591L47.3589 33.3999C47.6326 32.9562 47.5109 32.3941 47.1155 32.0687L42.6139 28.637C42.7051 27.9862 42.7659 27.3057 42.7659 26.6253C42.7659 25.9449 42.7051 25.2645 42.6139 24.5841L47.1155 21.1524C47.5109 20.827 47.6326 20.2649 47.3589 19.8212L43.1005 12.662C42.8268 12.2182 42.2793 12.0407 41.7926 12.2182L36.5001 14.2891C35.4051 13.4607 34.2189 12.7803 32.9109 12.2478L32.1201 6.77491C32.0289 6.30158 31.5726 5.91699 31.0555 5.91699H22.5389C22.0218 5.91699 21.5655 6.30158 21.4743 6.80449L20.6834 12.2774C19.4059 12.8099 18.1893 13.4903 17.0943 14.3187L11.8018 12.2478C11.3151 12.0703 10.7676 12.2478 10.4939 12.6916L6.23553 19.8507C5.96178 20.2945 6.08345 20.8566 6.47886 21.182L10.9805 24.6137C10.8893 25.2645 10.8284 25.9449 10.8284 26.6253C10.8284 27.3057 10.8893 27.9862 10.9805 28.6666L6.47886 32.0982C6.08345 32.4237 5.96178 32.9857 6.23553 33.4295L10.4939 40.5887C10.7676 41.0324 11.3151 41.2099 11.8018 41.0324L17.0943 38.9616C18.1893 39.7899 19.3755 40.4703 20.6834 41.0028L21.4743 46.4757C21.5655 46.9491 22.0218 47.3337 22.5389 47.3337H31.0555C31.5726 47.3337 32.0289 46.9491 32.1201 46.4462L32.9109 40.9732C34.1884 40.4407 35.4051 39.7603 36.5001 38.932L41.7926 41.0028C42.2793 41.1803 42.8268 41.0028 43.1005 40.5591ZM26.7972 32.542C23.4514 32.542 20.7139 29.8795 20.7139 26.6253C20.7139 23.3712 23.4514 20.7087 26.7972 20.7087C30.143 20.7087 32.8805 23.3712 32.8805 26.6253C32.8805 29.8795 30.143 32.542 26.7972 32.542Z" fill="#FFAB53"/>
<path d="M66.6734 55.2327L63.7534 53.0436C63.8143 52.6294 63.8751 52.1856 63.8751 51.7419C63.8751 51.2981 63.8447 50.8544 63.7534 50.4402L66.643 48.2511C66.8863 48.044 66.9776 47.689 66.7951 47.3932L64.0576 42.8077C63.9055 42.5119 63.5405 42.4232 63.2059 42.5119L59.8297 43.8431C59.1301 43.3106 58.3697 42.8669 57.518 42.5415L57.0009 39.0507C56.9705 38.6957 56.6663 38.459 56.3622 38.459H50.9176C50.583 38.459 50.2788 38.6956 50.2484 39.0211L49.7313 42.5119C48.9101 42.8669 48.1193 43.2811 47.4197 43.8136L44.0434 42.4823C43.7393 42.364 43.3743 42.4823 43.1918 42.7782L40.4543 47.3636C40.3022 47.6594 40.3326 48.0144 40.6063 48.2215L43.4959 50.4107C43.4351 50.8248 43.4047 51.2686 43.4047 51.7123C43.4047 52.1561 43.4351 52.5998 43.4959 53.014L40.6063 55.2031C40.363 55.4102 40.2718 55.7652 40.4543 56.0611L43.1918 60.6465C43.3438 60.9423 43.7088 61.0311 44.0434 60.9423L47.4197 59.6111C48.1193 60.1436 48.8797 60.5873 49.7313 60.9127L50.2484 64.4036C50.3093 64.729 50.583 64.9656 50.9176 64.9656H56.3622C56.6968 64.9656 57.0009 64.729 57.0313 64.4036L57.5484 60.9127C58.3697 60.5577 59.1605 60.1436 59.8297 59.6111L63.2363 60.9423C63.5405 61.0606 63.9055 60.9423 64.088 60.6465L66.8255 56.0611C67.008 55.7948 66.9168 55.4398 66.6734 55.2327ZM53.6247 55.7061C51.3738 55.7061 49.5184 53.9311 49.5184 51.7123C49.5184 49.4936 51.3434 47.7186 53.6247 47.7186C55.9059 47.7186 57.7309 49.4936 57.7309 51.7123C57.7309 53.9311 55.8755 55.7061 53.6247 55.7061Z" fill="#FFAB53"/>
</svg>
