<svg width="99" height="99" viewBox="0 0 99 99" fill="none" xmlns="http://www.w3.org/2000/svg">
<path d="M49.5 96C75.1812 96 96 75.1812 96 49.5C96 23.8188 75.1812 3 49.5 3C23.8188 3 3 23.8188 3 49.5C3 75.1812 23.8188 96 49.5 96Z" stroke="white" stroke-width="6"/>
<path d="M65.5774 56.0883C64.5572 55.0681 62.9092 55.0681 61.889 56.0883L51.7134 66.2378V26.5553C51.7134 25.1166 50.5362 23.9395 49.0975 23.9395C47.6588 23.9395 46.4817 25.1166 46.4817 26.5553V66.264L36.3321 56.1145C35.312 55.0943 33.664 55.0943 32.6438 56.1145C31.6236 57.1346 31.6236 58.7826 32.6438 59.8028L47.2664 74.4254C48.2866 75.4456 49.9346 75.4456 50.9548 74.4254L65.5774 59.8028C66.5714 58.7826 66.5714 57.1085 65.5774 56.0883Z" fill="white"/>
</svg>
